<svg width="512" height="512" fill="none" xmlns="http://www.w3.org/2000/svg"><path fill-rule="evenodd" clip-rule="evenodd" d="m102.726 405.978 82.122-23.812 70.93 129.691a.243.243 0 0 0 .426 0l70.93-129.691 82.123 23.812a.243.243 0 0 0 .3-.302l-23.816-80.497 126.115-68.975a.242.242 0 0 0 .001-.425l-127.155-69.544 24.855-84.01a.243.243 0 0 0-.3-.302l-84.049 24.371L256.204.126a.242.242 0 0 0-.425 0l-69.004 126.168-84.049-24.371a.243.243 0 0 0-.3.302l24.855 84.01L.126 255.779a.242.242 0 0 0 0 .425l126.115 68.975-23.815 80.497a.243.243 0 0 0 .3.302zm63.726-149.102 58.179 31.819 31.819 58.178a.242.242 0 0 0 .426 0l31.819-58.178 58.178-31.819a.243.243 0 0 0 0-.426l-58.178-31.819-31.819-58.178a.242.242 0 0 0-.426 0l-31.819 58.178-58.179 31.819a.243.243 0 0 0 0 .426z" fill="#fff"/></svg>